<svg width="167" height="30" viewBox="0 0 167 30" fill="none" xmlns="http://www.w3.org/2000/svg">
<path d="M112.268 13.2452H127.177L126.153 17.7824H111.244L108.745 29.0471H102.396L108.5 1.66751H132.625L131.601 6.28293H113.824L112.268 13.2452Z" fill="#222222"/>
<path d="M148.662 13.7928L159.27 1.66751H166.356L150.587 18.2126L148.17 29.0471H141.821L144.238 18.2126L135.841 1.66751H143.378L148.662 13.7928Z" fill="#222222"/>
<path d="M17.5996 14.575H31.7717L28.5769 29.0471H23.9484L24.5218 24.9793H24.317C23.2794 26.4917 21.9277 27.6781 20.262 28.5386C18.6236 29.3991 16.4664 29.8294 13.7903 29.8294C11.9062 29.8294 10.1995 29.6468 8.67034 29.2818C7.16847 28.9167 5.73487 28.1605 4.36954 27.0132C1.69349 24.7967 0.355469 21.6285 0.355469 17.5085C0.355469 12.2152 2.23963 7.97784 6.00794 4.79659C7.8921 3.23205 9.88548 2.18901 11.9881 1.6675C14.0907 1.14598 16.4937 0.885223 19.197 0.885223C20.4258 0.885223 21.4635 0.924337 22.31 1.00257C23.1838 1.05472 24.2761 1.2894 25.5868 1.70661C26.9248 2.12382 28.058 2.71053 28.9865 3.46673C31.1164 5.50064 32.2223 7.8605 32.3042 10.5463H25.7506C25.5868 8.85138 24.8359 7.56063 23.4978 6.67405C22.3783 5.89178 20.7945 5.50064 18.7465 5.50064C15.6062 5.50064 13.0667 6.33506 11.1279 8.00391C9.92644 8.9948 8.95706 10.2986 8.21978 11.9153C7.4825 13.5059 7.11386 15.2791 7.11386 17.2347C7.11386 19.8163 7.82383 21.785 9.24378 23.1409C10.6637 24.5229 12.6161 25.2139 15.101 25.2139C17.7498 25.2139 19.9343 24.4969 21.6546 23.0627C23.1019 21.9414 24.1805 20.3899 24.8905 18.4082H16.7804L17.5996 14.575Z" fill="#222222"/>
<path d="M74.9727 15.5869C74.8326 23.3388 64.9157 29.4613 52.8227 29.262C40.7296 29.0627 31.0399 22.6171 31.1799 14.8653C31.32 7.11344 41.2369 0.990896 53.33 1.19018C65.423 1.38946 75.1128 7.83511 74.9727 15.5869Z" fill="#222222"/>
<path d="M104.552 15.3742C104.552 23.0892 98.0026 29.3434 89.9235 29.3434C81.8443 29.3434 75.2949 23.0892 75.2949 15.3742C75.2949 7.65924 81.8443 1.40503 89.9235 1.40503C98.0026 1.40503 104.552 7.65924 104.552 15.3742Z" fill="#222222"/>
</svg>
