<svg width="673" height="597" viewBox="0 0 673 597" fill="none" xmlns="http://www.w3.org/2000/svg">
<path d="M501.549 46.4455L476.913 187.385L593.833 107.24L492.788 207.418L632.833 212.116L493.975 233.267L603.654 321.013L480.022 255.059L517.441 392.338L456.258 264.47L407.124 398.846L431.76 257.906L314.841 338.052L415.886 237.874L275.84 233.176L414.698 212.025L305.019 124.278L428.651 190.232L391.233 52.9535L452.415 180.821L501.549 46.4455Z" fill="#F7C96E"/>
<path fill-rule="evenodd" clip-rule="evenodd" d="M136.592 496.335C168.291 517.796 239.826 531.678 274.009 450.33C277.556 441.89 275.89 425.945 270.303 410.734C262.585 388.962 281.609 365.693 299.845 397.942L293.413 329.214C282.766 327.845 261.501 338.505 261.608 392.094C243.34 359.976 209.523 332.145 172.027 347.061C109.724 371.846 176.257 462.722 262.999 443.252C254.454 456.012 175.118 496.075 127.433 398.469L136.592 496.335ZM269.345 434.917C261.991 415.232 229.597 375.509 207.557 386.067C188.607 399.292 241.689 437.505 269.345 434.917Z" fill="#151921"/>
<path d="M414.377 410.216C420.848 495.122 336.756 571.375 225.637 579.844C114.519 588.312 19.843 525.683 13.3724 440.777C6.90172 355.871 90.9937 279.618 202.112 271.149C313.23 262.681 407.907 325.31 414.377 410.216Z" stroke="#151921" strokeWidth="3"/>
<path d="M200.337 272.261C358.178 281.052 386.387 545.074 226.8 576.246" stroke="#151921" stroke-width="3"/>
<path d="M199.083 270.348L209.411 380.068" stroke="#151921" stroke-width="3"/>
<path d="M228.229 577.14L216.678 465.634" stroke="#151921" stroke-width="3"/>
<path d="M198.334 272.441C46.1002 304.879 65.2418 568.747 225.185 575.581" stroke="#151921" stroke-width="3"/>
<path d="M402.498 472.377C327.162 452.208 126.097 461.834 41.187 504.459" stroke="#151921" stroke-width="3"/>
<path d="M36.416 360.346C101.482 401.692 299.806 384.837 375.158 328.447" stroke="#151921" stroke-width="3"/>
</svg>
