<svg width="1440" height="727" viewBox="0 0 1440 727" fill="none" xmlns="http://www.w3.org/2000/svg">
<path d="M360.549 0H481.549L482 121H361L360.549 0Z" fill="#FF0028"/>
<path d="M843 0.0145264H966.027V121H843V0.0145264Z" fill="#FF0028"/>
<path d="M966 121H1086.9V242H966V121Z" fill="white"/>
<path d="M119 0.0145264H240V121.015H119V0.0145264Z" fill="white"/>
<path d="M843 242H966.027V366L843 366V242Z" fill="#FF0028"/>
<path d="M-3 121.015H119V242.015H-3V121.015Z" fill="#FF0028"/>
<path d="M966.027 366H1087V484H966.027V366Z" fill="white"/>
<path d="M966.027 606.014H1087V725.931H966.027V606.014Z" fill="white"/>
<path d="M600.598 32.2462C557.848 113.825 502.177 120.381 482 121V242C514.213 238.55 584.616 222.071 606.705 181.94C634.316 131.777 695.909 127.53 726.706 181.94C751.344 225.468 813.619 239.965 843 242V121C793 115.5 777.347 107.726 726.706 32.2462C696.435 -12.8743 621.966 -8.5296 600.598 32.2462Z" fill="white"/>
<path d="M843 484H966V606H843V484Z" fill="#FF0028"/>
<path d="M723 606H843V726.031H723V606Z" fill="white"/>
<path d="M1087 483.591L1210 484V606H1087V483.591Z" fill="#FF0028"/>
<rect x="482" y="366.015" width="121" height="118" fill="#FF0028"/>
<path d="M240.014 121.015H361V242.015H240.014V121.015Z" fill="#FF0028"/>
<path d="M119 484H240V606.015H119V484Z" fill="#FF0028"/>
<path d="M240 606.014L361 606.014V726.014L240 725.957V606.014Z" fill="white"/>
<path d="M-0.355469 605.911H119V725.957H-0.355469V605.911Z" fill="white"/>
<path d="M361.232 483.599L482 484.015V606.015H361L361.232 483.599Z" fill="white"/>
<path d="M1325 242H1445.69V366H1325V242Z" fill="#FF0028"/>
<path d="M1325 0.0145264H1445.69V121.235H1325V0.0145264Z" fill="#FF0028"/>
<path d="M1213.97 434.899C1138.79 360.508 1124.72 366 1087 366V242C1165.37 242 1199.02 281.086 1239.2 321.591C1259.93 342.483 1302.6 365.382 1325 366V484C1285.95 484 1249.49 470.048 1213.97 434.899Z" fill="#FF0028"/>
<path d="M1260.26 616.622C1330 557 1325 526.5 1325 484L1445 484C1445 567.247 1419.96 593.818 1377 636.5C1354.84 658.515 1325 680 1325 726L1210 726C1210 684.517 1219.95 651.091 1260.26 616.622Z" fill="#FF0028"/>
<path d="M1213.97 191.156C1138.79 116.764 1124.72 121 1087 121V0C1165.37 0 1199.02 37.3427 1239.2 77.8477C1259.93 98.7396 1302.6 120.382 1325 121V242C1285.95 242 1249.49 226.305 1213.97 191.156Z" fill="white"/>
<path d="M128.731 436.738C52.3561 360.952 38.3225 366.346 0 366.346V242.015C79.6137 242.015 113.55 280.042 154.37 321.306C175.423 342.59 217.24 365.371 240 366V484C200.328 484 164.817 472.545 128.731 436.738Z" fill="white"/>
<path d="M353.244 436.358C429.691 360.419 443.642 366.015 482 366.015V242C402.312 242 368.439 279.345 327.581 320.693C306.508 342.019 262.781 365.369 240 366V484C279.709 484 317.124 472.237 353.244 436.358Z" fill="#FF0028"/>
<path d="M843 366C758.575 365.575 723 310 723 242H603C603 311 594 357.295 659.5 422C720.861 482.616 783.001 484 843 484C843.265 449.792 843 405 843 366Z" fill="#FF0028"/>
<path d="M481.999 606.015C574.078 617.915 604.508 535.55 602.999 484H722.998C722.998 533.5 729.642 604.883 668.998 664.5C606.628 725.815 542.985 726.015 481.999 726.015V606.015Z" fill="#FF0028"/>
</svg>
