<svg width="311" height="54" viewBox="0 0 311 54" fill="none" xmlns="http://www.w3.org/2000/svg">
<path d="M209.964 23.1189H237.807L235.894 31.5675H208.051L203.385 52.5432H191.529L202.927 1.56055H247.98L246.068 10.1548H212.87L209.964 23.1189Z" fill="#F8F5F1"/>
<path d="M277.928 24.1386L297.739 1.56055H310.972L281.523 32.3687L277.01 52.5432H265.154L269.667 32.3687L253.986 1.56055H268.061L277.928 24.1386Z" fill="#F8F5F1"/>
<path d="M33.1756 25.5958H59.6416L53.6753 52.5438H45.0317L46.1026 44.9693H45.7202C43.7824 47.7854 41.2582 49.9947 38.1475 51.597C35.0878 53.1993 31.0593 54.0005 26.0619 54.0005C22.5432 54.0005 19.3561 53.6606 16.5004 52.9808C13.6957 52.301 11.0185 50.893 8.46882 48.7565C3.47138 44.6294 0.972656 38.7299 0.972656 31.0583C0.972656 21.2016 4.49126 13.3114 11.5285 7.38773C15.0471 4.47444 18.7697 2.53224 22.6962 1.56114C26.6228 0.59004 31.1103 0.104492 36.1587 0.104492C38.4535 0.104492 40.3913 0.177325 41.9721 0.32299C43.6039 0.420099 45.6437 0.857092 48.0914 1.63397C50.5901 2.41085 52.7064 3.50334 54.4402 4.91143C58.4177 8.69871 60.483 13.0929 60.636 18.0941H48.3974C48.0914 14.938 46.6891 12.5346 44.1903 10.8837C42.0996 9.42704 39.1419 8.69871 35.3173 8.69871C29.453 8.69871 24.7105 10.2525 21.0899 13.36C18.8462 15.2051 17.0359 17.6328 15.659 20.6432C14.2822 23.6051 13.5937 26.9068 13.5937 30.5484C13.5937 35.3554 14.9196 39.0213 17.5713 41.5461C20.223 44.1195 23.8691 45.4062 28.5096 45.4062C33.456 45.4062 37.5356 44.071 40.7482 41.4005C43.4509 39.3126 45.4652 36.4236 46.791 32.7334H31.6457L33.1756 25.5958Z" fill="#F8F5F1"/>
<path d="M140.318 27.4796C140.056 41.9141 121.537 53.3147 98.9533 52.9436C76.3699 52.5725 58.2745 40.5703 58.5361 26.1359C58.7977 11.7014 77.3172 0.300818 99.9006 0.671896C122.484 1.04297 140.579 13.0452 140.318 27.4796Z" fill="#F8F5F1"/>
<path d="M195.555 27.0838C195.555 41.4496 183.324 53.0954 168.236 53.0954C153.149 53.0954 140.918 41.4496 140.918 27.0838C140.918 12.718 153.149 1.07227 168.236 1.07227C183.324 1.07227 195.555 12.718 195.555 27.0838Z" fill="#F8F5F1"/>
</svg>
