<svg width="1440" height="822" viewBox="0 0 1440 822" fill="none" xmlns="http://www.w3.org/2000/svg">
<path d="M408.322 209.082L618 209.082V416H409L408.322 209.082Z" fill="#222222"/>
<path d="M1032 4H1240.96V209H1033L1032 4Z" fill="#222222"/>
<path fill-rule="evenodd" clip-rule="evenodd" d="M1241 209H1449.96V412H1450V821H1241H1033V821.142H823V614H1033V417.5L1241 416V412V209Z" fill="#222222"/>
<path d="M201 416H409V614H201V416Z" fill="#222222"/>
<path d="M0 614H201V821.472H0V614Z" fill="#222222"/>
<path d="M190.633 332.334C320.318 204.687 343.928 209 409 209L409.219 4.35938C274.035 4.35938 216.41 68.4099 147.099 137.911C111.35 173.759 70 209 0.000946045 209V416C67.3638 416 129.36 392.645 190.633 332.334Z" fill="#222222"/>
<path d="M1033 209C886.726 208.273 834.931 68.5615 827.599 0.725586H619.554C618.663 0.725586 596.644 169.114 721.286 290.543C827.599 394.114 929.047 416 1033 416C1033.46 357.552 1033 268.5 1033 209Z" fill="#222222"/>
<path d="M410.285 613.975C556.558 613.248 614 541 618 416H823C823 485.5 818.262 613.975 730.602 699.376C624.288 802.947 512.953 821 409 821C408.542 762.552 409.185 639.777 410.285 613.975Z" fill="#222222"/>
</svg>
