<svg width="1440" height="461" viewBox="0 0 1440 461" fill="none" xmlns="http://www.w3.org/2000/svg">
<path d="M457.879 367.401C607.46 226.745 634.945 232 710 232V6C554.076 6 487.611 76.5782 407.666 153.163C366.432 192.664 282.575 225.577 238 226.745V457C315.698 457 387.205 433.858 457.879 367.401Z" fill="#005AFF"/>
<path d="M1405.88 371.401C1555.46 230.745 1582.95 236 1658 236V10C1502.08 10 1435.61 80.5782 1355.67 157.163C1314.43 196.664 1230.57 229.577 1186 230.745V461C1263.7 461 1335.2 437.858 1405.88 371.401Z" fill="#005AFF"/>
<rect width="238" height="228" fill="#005AFF"/>
<rect x="710" y="231" width="238" height="228" fill="#005AFF"/>
<rect x="948" y="3" width="238" height="228" fill="#005AFF"/>
</svg>
