<svg width="930" height="627" viewBox="0 0 930 627" fill="none" xmlns="http://www.w3.org/2000/svg">
<rect x="312.283" width="104.691" height="104.523" fill="#222222"/>
<rect x="730.168" width="104.691" height="104.523" fill="#222222"/>
<path d="M834.836 104.488H939.005V209.012L834.836 209V104.488Z" fill="white"/>
<rect x="730.168" y="209" width="104.691" height="104.523" fill="#222222"/>
<path d="M834.836 313.57H939.302V416.97H834.836V313.57Z" fill="white"/>
<path d="M519.009 27.7922C482.088 98.1348 434.401 103.966 416.975 104.5L416.666 209C444.486 206.025 505.206 191.471 524.282 156.867C548.129 113.613 601.324 109.952 627.921 156.867C649.199 194.4 704.793 207.245 730.168 209V104.5C699.118 102.5 671.656 92.8755 627.921 27.7922C601.777 -11.1135 537.463 -7.36728 519.009 27.7922Z" fill="white"/>
<rect x="730.168" y="417" width="104.691" height="104.523" fill="#222222"/>
<path d="M625.477 521.5H730.167V626.524H625.477V521.5Z" fill="white"/>
<rect x="416.666" y="312.488" width="104.691" height="104.523" fill="#222222"/>
<rect x="207.594" y="104.523" width="104.691" height="104.523" fill="#222222"/>
<path d="M103.676 417H208.367V521.5L103.676 522V417Z" fill="#222222"/>
<path d="M208.334 521.488L312.276 521.488V626H208.334V521.488Z" fill="white"/>
<path d="M0 522H103.678V625.953H0V522Z" fill="white"/>
<path d="M312.283 416.977H416.667V521.5H312.283V416.977Z" fill="white"/>
<path d="M305.384 376.242C371.407 310.763 383.538 312.423 416.666 312.423V209C347.844 209 318.507 240.856 283.221 276.509C265.021 294.897 228.007 310.219 208.333 310.763V417C242.627 417 274.189 407.18 305.384 376.242Z" fill="#222222"/>
<path d="M730.167 313.5C657.254 313.133 632.16 243.234 628.505 209H524.838C524.838 223 513.434 294.978 575.565 356.257C628.559 408.524 678.35 417 730.167 417V313.5Z" fill="#222222"/>
<path d="M416.667 521.5C490.779 521.129 517.619 451.628 521.334 417H624.5C624.499 442.047 632.012 511.5 579.27 563.576C525.404 616.446 469.337 626 416.667 626V521.5Z" fill="#222222"/>
</svg>
