<svg width="18" height="19" viewBox="0 0 18 19" fill="none" xmlns="http://www.w3.org/2000/svg">
<path fill-rule="evenodd" clip-rule="evenodd" d="M13.1448 7.70669C13.1448 10.7843 10.65 13.2791 7.57242 13.2791C4.49486 13.2791 2 10.7843 2 7.70669C2 4.62913 4.49486 2.13428 7.57242 2.13428C10.65 2.13428 13.1448 4.62913 13.1448 7.70669ZM11.6898 14.063C10.5046 14.8323 9.09069 15.2791 7.57242 15.2791C3.39029 15.2791 0 11.8888 0 7.70669C0 3.52456 3.39029 0.134277 7.57242 0.134277C11.7545 0.134277 15.1448 3.52456 15.1448 7.70669C15.1448 9.64912 14.4135 11.4207 13.2111 12.7612L16.8054 17.3864C17.1442 17.8225 17.0654 18.4507 16.6293 18.7896C16.1933 19.1285 15.565 19.0497 15.2261 18.6136L11.6898 14.063Z" fill="#151921"/>
</svg>
